<svg xmlns="http://www.w3.org/2000/svg" height="48" viewBox="0 96 960 960" width="48"><path d="M138 830q-29.363 0-51.181-22.138Q65 785.725 65 757V394q0-28.725 21.819-50.862Q108.638 321 138 321h686q28.725 0 50.862 22.138Q897 365.275 897 394v363q0 28.725-22.138 50.862Q852.725 830 824 830H138Zm0-73h686V394H138v363Zm145-53h73v-92h92v-73h-92v-93h-73v93h-93v73h93v92Zm307-17q18 0 31.5-13.5T635 642q0-18-13.5-31.5T590 597q-18 0-31.5 13.5T545 642q0 18 13.5 31.5T590 687Zm90-134q18 0 31.5-13t13.5-32q0-18-13.5-31.5T680 463q-18 0-31.5 13.5T635 508q0 19 13.5 32t31.5 13ZM138 757V394v363Z"/></svg>