<svg xmlns="http://www.w3.org/2000/svg" height="48" viewBox="0 -960 960 960" width="48"><path d="m378-407 38-126-104-76h127.36L480-743l39.64 134H648l-103 76 37 126-102-78-102 78ZM229-22v-321.453Q184-392 164.5-450.222 145-508.444 145-565q0-141.719 96.698-238.359Q338.396-900 480.198-900 622-900 718.5-803.359 815-706.719 815-565q0 56.556-19 114.778Q777-392 731-343.453V-22l-251-86-251 86Zm251.118-281Q590-303 666-379.118q76-76.117 76-186Q742-675 665.882-751q-76.117-76-186-76Q370-827 294-750.882q-76 76.117-76 186Q218-455 294.118-379q76.117 76 186 76ZM302-127l178-53 178 53v-157q-41 29-87.324 41.5T480-230q-44.352 0-90.676-12.5Q343-255 302-284v157Zm178-79Z"/></svg>