<svg xmlns="http://www.w3.org/2000/svg" height="48" viewBox="0 96 960 960" width="48"><path d="m32 516-77-77Q56 336 192 278t288-58q24 0 60 2t69 7l-50 104q-18-1-38.5-2t-40.5-1q-129 0-243.5 50T32 516Zm152 146-77-76q69-68 167.5-105T502 449l-55 109q-72-1-143.5 27.5T184 662Zm257 245q-30-12-45-45.5t1-65.5l260-527q4-8 12-11t17-1q9 3 14.5 11t3.5 16L556 861q-9 35-46 47t-69-1Zm335-245q-15-15-43.5-35.5T685 597l24-106q37 13 77.5 41.5T853 586l-77 76Zm152-146q-41-40-94-75.5T736 384l26-109q74 30 134 72.5t109 91.5l-77 77Z"/></svg>